
<region>
sample=../Samples/perc/oh/conga/Conga_22_HitN_1_50_rr1_Overhead.wav
hivel=42
seq_length=8
amp_velcurve_42=1

<region>
sample=../Samples/perc/oh/conga/Conga_22_HitN_1_50_rr2_Overhead.wav
hivel=42
seq_length=8
seq_position=2
amp_velcurve_42=1

<region>
sample=../Samples/perc/oh/conga/Conga_22_HitN_1_50_rr3_Overhead.wav
hivel=42
seq_length=8
seq_position=3
amp_velcurve_42=1

<region>
sample=../Samples/perc/oh/conga/Conga_22_HitN_1_50_rr4_Overhead.wav
hivel=42
seq_length=8
seq_position=4
amp_velcurve_42=1

<region>
sample=../Samples/perc/oh/conga/Conga_22_HitN_1_50_rr5_Overhead.wav
hivel=42
seq_length=8
seq_position=5
amp_velcurve_42=1

<region>
sample=../Samples/perc/oh/conga/Conga_22_HitN_1_50_rr6_Overhead.wav
hivel=42
seq_length=8
seq_position=6
amp_velcurve_42=1

<region>
sample=../Samples/perc/oh/conga/Conga_22_HitN_1_50_rr7_Overhead.wav
hivel=42
seq_length=8
seq_position=7
amp_velcurve_42=1

<region>
sample=../Samples/perc/oh/conga/Conga_22_HitN_1_50_rr8_Overhead.wav
hivel=42
seq_length=8
seq_position=8
amp_velcurve_42=1

<region>
sample=../Samples/perc/oh/conga/Conga_22_HitN_101_127_rr1_Overhead.wav
lovel=85
seq_length=8

<region>
sample=../Samples/perc/oh/conga/Conga_22_HitN_101_127_rr2_Overhead.wav
lovel=85
seq_length=8
seq_position=2

<region>
sample=../Samples/perc/oh/conga/Conga_22_HitN_101_127_rr3_Overhead.wav
lovel=85
seq_length=8
seq_position=3

<region>
sample=../Samples/perc/oh/conga/Conga_22_HitN_101_127_rr4_Overhead.wav
lovel=85
seq_length=8
seq_position=4

<region>
sample=../Samples/perc/oh/conga/Conga_22_HitN_101_127_rr5_Overhead.wav
lovel=85
seq_length=8
seq_position=5

<region>
sample=../Samples/perc/oh/conga/Conga_22_HitN_101_127_rr6_Overhead.wav
lovel=85
seq_length=8
seq_position=6

<region>
sample=../Samples/perc/oh/conga/Conga_22_HitN_101_127_rr7_Overhead.wav
lovel=85
seq_length=8
seq_position=7

<region>
sample=../Samples/perc/oh/conga/Conga_22_HitN_101_127_rr8_Overhead.wav
lovel=85
seq_length=8
seq_position=8

<region>
sample=../Samples/perc/oh/conga/Conga_22_HitN_51_100_rr1_Overhead.wav
lovel=43
hivel=84
seq_length=8
amp_velcurve_84=1

<region>
sample=../Samples/perc/oh/conga/Conga_22_HitN_51_100_rr2_Overhead.wav
lovel=43
hivel=84
seq_length=8
seq_position=2
amp_velcurve_84=1

<region>
sample=../Samples/perc/oh/conga/Conga_22_HitN_51_100_rr3_Overhead.wav
lovel=43
hivel=84
seq_length=8
seq_position=3
amp_velcurve_84=1

<region>
sample=../Samples/perc/oh/conga/Conga_22_HitN_51_100_rr4_Overhead.wav
lovel=43
hivel=84
seq_length=8
seq_position=4
amp_velcurve_84=1

<region>
sample=../Samples/perc/oh/conga/Conga_22_HitN_51_100_rr5_Overhead.wav
lovel=43
hivel=84
seq_length=8
seq_position=5
amp_velcurve_84=1

<region>
sample=../Samples/perc/oh/conga/Conga_22_HitN_51_100_rr6_Overhead.wav
lovel=43
hivel=84
seq_length=8
seq_position=6
amp_velcurve_84=1

<region>
sample=../Samples/perc/oh/conga/Conga_22_HitN_51_100_rr7_Overhead.wav
lovel=43
hivel=84
seq_length=8
seq_position=7
amp_velcurve_84=1

<region>
sample=../Samples/perc/oh/conga/Conga_22_HitN_51_100_rr8_Overhead.wav
lovel=43
hivel=84
seq_length=8
seq_position=8
amp_velcurve_84=1
